<svg xmlns="http://www.w3.org/2000/svg" width="24" height="24" viewBox="0 -960 960 960"><path d="M197-197q-54-55-85.5-127.5T80-480q0-84 31.5-156.5T197-763l57 57q-44 44-69 102t-25 124q0 67 25 125t69 101zm113-113q-32-33-51-76.5T240-480q0-51 19-94.5t51-75.5l57 57q-22 22-34.5 51T320-480t12.5 62 34.5 51zm170-90q-33 0-56.5-23.5T400-480t23.5-56.5T480-560t56.5 23.5T560-480t-23.5 56.5T480-400m170 90-57-57q22-22 34.5-51t12.5-62-12.5-62-34.5-51l57-57q32 32 51 75.5t19 94.5q0 50-19 93.5T650-310m113 113-57-57q44-44 69-102t25-124q0-67-25-125t-69-101l57-57q54 54 85.5 126.5T880-480q0 83-31.5 155.5T763-197"/></svg>